<?xml version="1.0" encoding="utf-8"?>
<!-- Generator: Adobe Illustrator 19.0.0, SVG Export Plug-In . SVG Version: 6.00 Build 0)  -->
<svg version="1.1" id="Layer_1" xmlns="http://www.w3.org/2000/svg" xmlns:xlink="http://www.w3.org/1999/xlink" x="0px" y="0px"
	 width="1200px" height="675px" viewBox="0 0 1200 675" style="enable-background:new 0 0 1200 675;" xml:space="preserve">
<style type="text/css">
	.st0{fill:#010101;}
	.st1{font-family:'Consolas';}
	.st2{font-size:77.6907px;}
</style>
<g id="XMLID_7_">
	<g id="XMLID_6_">
		<path id="XMLID_4_" class="st0" d="M249.8,183.1h-54.2c-5.2,0-10.2-3.6-10.2-9.7c0-6.3,5-9.7,10.2-9.7h46.6l8.3,8.5h47.7
			l38.5-39.1l-59.3-59.3h-91.1c-50.7,0-92.9,40.3-92.9,91.1s42.2,90.7,92.9,90.7h54.3c5.2,0,10.2,3.6,10.2,9.7c0,6.3-5,9.7-10.2,9.7
			h-62.3l-8.3-8.5h-47.6L84,305.5l59.3,59.3H250c50.7,0,92.9-40.3,92.9-91.1C342.8,223.3,300.5,183.1,249.8,183.1z"/>
		<polygon id="XMLID_3_" class="st0" points="745.5,164.2 837.3,164.2 873.9,122.3 873.9,73.5 692.9,73.5 653.6,117.1 653.6,295.3 
			625.1,323.3 625.1,365.2 771.9,365.2 771.9,323.3 743.1,295 743.1,263.3 804.8,263.3 837,229.6 837,175.2 743.1,175.2 
			743.1,166.6 		"/>
		<polygon id="XMLID_2_" class="st0" points="640,73.5 493.2,73.5 493.2,115.4 520.2,142.1 520.2,157.6 492.4,183.1 484.9,183.1 
			457.1,157.6 457.1,141.3 483.6,115.4 483.6,73.5 336.7,73.5 336.7,115.4 366.3,144.5 366.3,186.4 442.9,254.2 442.9,295.8 
			415,323.3 415,365.2 561.8,365.2 561.8,323.3 533.5,295.8 533.5,254.8 610.9,186.4 610.9,143.7 640,115.4 		"/>
		<polygon id="XMLID_1_" class="st0" points="927.6,73.5 888.3,117.1 888.3,295.3 859.8,323.3 859.8,365.2 1006.6,365.2 
			1006.6,323.3 977.8,295 977.8,263.3 1039.5,263.3 1071.7,229.6 1071.7,175.2 977.8,175.2 977.8,166.6 980.2,164.2 1072,164.2 
			1108.6,122.3 1108.6,73.5 		"/>
	</g>
	<text id="XMLID_5_" transform="matrix(1 0 0 1 90.798 461.5313)" class="st1 st2">Synthetic Font Functions</text>
</g>
</svg>
