<?xml version="1.0" encoding="utf-8"?>
<!-- Generator: Adobe Illustrator 19.0.0, SVG Export Plug-In . SVG Version: 6.00 Build 0)  -->
<svg version="1.1" id="Layer_1" xmlns="http://www.w3.org/2000/svg" xmlns:xlink="http://www.w3.org/1999/xlink" x="0px" y="0px"
	 width="402px" height="116px" viewBox="-104 339 402 116" style="enable-background:new -104 339 402 116;" xml:space="preserve">
<g>
	<path d="M-35.7,383.1h-20.8c-2,0-3.9-1.4-3.9-3.7c0-2.4,1.9-3.7,3.9-3.7h17.8l3.2,3.2h18.3l14.7-15l-22.7-22.7h-34.9
		c-19.4,0-35.6,15.5-35.6,34.9s16.2,34.8,35.6,34.8h20.8c2,0,3.9,1.4,3.9,3.7c0,2.4-1.9,3.7-3.9,3.7h-23.8l-3.2-3.2h-18.3l-14.7,15
		l22.7,22.7h40.8c19.4,0,35.6-15.5,35.6-34.9C-0.1,398.5-16.3,383.1-35.7,383.1z"/>
	<polygon points="154.2,375.9 189.4,375.9 203.4,359.8 203.4,341.1 134,341.1 118.9,357.8 118.9,426.1 108,436.8 108,452.9 
		164.3,452.9 164.3,436.8 153.2,426 153.2,413.8 176.9,413.8 189.3,400.9 189.3,380.1 153.2,380.1 153.2,376.8 	"/>
	<polygon points="113.7,341.1 57.4,341.1 57.4,357.2 67.9,367.4 67.9,373.4 57.2,383.1 54.3,383.1 43.7,373.4 43.7,367.1 
		53.8,357.2 53.8,341.1 -2.5,341.1 -2.5,357.2 8.9,368.3 8.9,384.4 38.3,410.4 38.3,426.3 27.5,436.8 27.5,452.9 83.7,452.9 
		83.7,436.8 73,426.3 73,410.6 102.6,384.4 102.6,368 113.7,357.2 	"/>
	<polygon points="224,341.1 208.9,357.8 208.9,426.1 198,436.8 198,452.9 254.2,452.9 254.2,436.8 243.2,426 243.2,413.8 
		266.9,413.8 279.2,400.9 279.2,380.1 243.2,380.1 243.2,376.8 244.1,375.9 279.3,375.9 293.3,359.8 293.3,341.1 	"/>
</g>
</svg>
