<?xml version="1.0" encoding="utf-8"?>
<!-- Generator: Adobe Illustrator 19.0.0, SVG Export Plug-In . SVG Version: 6.00 Build 0)  -->
<svg version="1.1" id="Layer_1" xmlns="http://www.w3.org/2000/svg" xmlns:xlink="http://www.w3.org/1999/xlink" x="0px" y="0px"
	 width="665px" height="195px" viewBox="27 299 665 195" style="enable-background:new 27 299 665 195;" xml:space="preserve">
<g>
	<path d="M138.8,373.4h-34.5c-3.3,0-6.5-2.3-6.5-6.2c0-4,3.2-6.2,6.5-6.2H134l5.3,5.4h30.4l24.5-24.9l-37.8-37.8h-58
		c-32.3,0-59.2,25.7-59.2,58s26.9,57.8,59.2,57.8H133c3.3,0,6.5,2.3,6.5,6.2c0,4-3.2,6.2-6.5,6.2H93.3l-5.3-5.4H57.7l-24.5,24.9
		L71,489.2h67.9c32.3,0,59.2-25.7,59.2-58C198,399,171.1,373.4,138.8,373.4z"/>
	<polygon points="454.5,361.4 513,361.4 536.3,334.7 536.3,303.6 421,303.6 396,331.4 396,444.9 377.8,462.7 377.8,489.4 
		471.3,489.4 471.3,462.7 453,444.7 453,424.5 492.3,424.5 512.8,403 512.8,368.4 453,368.4 453,362.9 	"/>
	<polygon points="387.3,303.6 293.8,303.6 293.8,330.3 311,347.3 311,357.2 293.3,373.4 288.5,373.4 270.8,357.2 270.8,346.8 
		287.7,330.3 287.7,303.6 194.1,303.6 194.1,330.3 213,348.8 213,375.5 261.8,418.7 261.8,445.2 244,462.7 244,489.4 337.5,489.4 
		337.5,462.7 319.5,445.2 319.5,419.1 368.8,375.5 368.8,348.3 387.3,330.3 	"/>
	<polygon points="570.5,303.6 545.5,331.4 545.5,444.9 527.3,462.7 527.3,489.4 620.8,489.4 620.8,462.7 602.5,444.7 602.5,424.5 
		641.8,424.5 662.3,403 662.3,368.4 602.5,368.4 602.5,362.9 604,361.4 662.5,361.4 685.8,334.7 685.8,303.6 	"/>
</g>
</svg>
